# xmcd CD database file
#
# Track frame offsets:
#	150
#	22933
#	30767
#	41391
#	62710
#	82010
#	99631
#	108626
#	123960
#	147085
#	162263
#	181781
#	196960
#
# Disc length: 2892 seconds
#
# Revision: 1
# Processed by: cddbd v1.5.2PL0 Copyright (c) Steve Scherf et al.
# Submitted via: CDex 1.51
#
DISCID=9d0b4a0d
DTITLE=Stefano Bollani - BollaniCarioca
DYEAR=2007
DGENRE=Jazz
TTITLE0=Luz Negra
TTITLE1=Ao Romper Da Aurora
TTITLE2=Choro Sim
TTITLE3=Valsa Brasileira
TTITLE4=A Voz No Morro
TTITLE5=A Hora Da Razao
TTITLE6=Segura Ele
TTITLE7=Doce De Coco
TTITLE8=Folhas Secas
TTITLE9=Il Domatore Di Pulci
TTITLE10=Samba e Amor
TTITLE11=Tico Tico No Fuba
TTITLE12=Caprichos Do Destino
EXTD=YEAR: 2007
EXTT0=
EXTT1=
EXTT2=
EXTT3=
EXTT4=
EXTT5=
EXTT6=
EXTT7=
EXTT8=
EXTT9=
EXTT10=
EXTT11=
EXTT12=
PLAYORDER=
